<svg width="20" height="20" viewBox="0 0 20 20" fill="none" xmlns="http://www.w3.org/2000/svg">
<path d="M15 15.7166H14.3667C13.7 15.7166 13.0667 15.975 12.6 16.4416L11.175 17.85C10.525 18.4917 9.46667 18.4917 8.81667 17.85L7.39166 16.4416C6.925 15.975 6.28333 15.7166 5.625 15.7166H5C3.61667 15.7166 2.5 14.6083 2.5 13.2417V4.14996C2.5 2.7833 3.61667 1.67499 5 1.67499H15C16.3833 1.67499 17.5 2.7833 17.5 4.14996V13.2417C17.5 14.6 16.3833 15.7166 15 15.7166Z" stroke="#1C1D24" stroke-width="1.2" stroke-miterlimit="10" stroke-linecap="round" stroke-linejoin="round"/>
<path d="M5.83337 7.63336C5.83337 6.85836 6.46671 6.22498 7.24171 6.22498C8.01671 6.22498 8.65004 6.85836 8.65004 7.63336C8.65004 9.20003 6.42504 9.36669 5.93337 10.8584C5.83337 11.1667 6.0917 11.475 6.4167 11.475H8.65004" stroke="#1C1D24" stroke-width="1.2" stroke-linecap="round" stroke-linejoin="round"/>
<path d="M13.3667 11.4667V6.70838C13.3667 6.49171 13.225 6.3 13.0167 6.24166C12.8084 6.18333 12.5834 6.26666 12.4667 6.45C11.8667 7.41666 11.2167 8.51667 10.65 9.48334C10.5584 9.64167 10.5584 9.85001 10.65 10.0083C10.7417 10.1667 10.9167 10.2666 11.1084 10.2666H14.1667" stroke="#1C1D24" stroke-width="1.2" stroke-linecap="round" stroke-linejoin="round"/>
</svg>
