<svg width="20" height="20" viewBox="0 0 20 20" fill="none" xmlns="http://www.w3.org/2000/svg">
<path d="M17.1834 10.8916C16.8667 10.8916 16.6 10.65 16.5584 10.3333C16.3584 8.44996 15.3417 6.74163 13.775 5.6583C13.4917 5.4583 13.425 5.07496 13.6167 4.79163C13.8167 4.5083 14.2084 4.44163 14.4834 4.6333C16.35 5.92496 17.55 7.9583 17.7917 10.2C17.825 10.5416 17.5834 10.85 17.2334 10.8916C17.225 10.8916 17.2 10.8916 17.1834 10.8916Z" fill="#1C1D24"/>
<path d="M2.90825 10.9332C2.88325 10.9332 2.86659 10.9332 2.84159 10.9332C2.49992 10.8916 2.24992 10.5832 2.28325 10.2416C2.50825 7.99989 3.69992 5.97489 5.54159 4.66656C5.82492 4.46656 6.21659 4.53322 6.41659 4.81656C6.61659 5.09989 6.54992 5.49156 6.26659 5.69156C4.71659 6.78322 3.71659 8.49156 3.52492 10.3749C3.49992 10.6916 3.22492 10.9332 2.90825 10.9332Z" fill="#1C1D24"/>
<path d="M10.0498 18.8415C8.81648 18.8415 7.64148 18.5581 6.54147 18.0081C6.23314 17.8498 6.10814 17.4748 6.26647 17.1665C6.42481 16.8581 6.79981 16.7331 7.10814 16.8915C8.90814 17.7998 11.0748 17.8165 12.8915 16.9415C13.1998 16.7915 13.5748 16.9248 13.7248 17.2331C13.8748 17.5415 13.7415 17.9165 13.4331 18.0665C12.3665 18.5831 11.2331 18.8415 10.0498 18.8415Z" fill="#1C1D24"/>
<path d="M10.0501 7.03324C8.42507 7.03324 7.1084 5.71657 7.1084 4.09157C7.1084 2.46657 8.42507 1.1499 10.0501 1.1499C11.6751 1.1499 12.9917 2.46657 12.9917 4.09157C12.9917 5.71657 11.6667 7.03324 10.0501 7.03324ZM10.0501 2.40824C9.11673 2.40824 8.3584 3.16657 8.3584 4.0999C8.3584 5.03324 9.11673 5.79157 10.0501 5.79157C10.9834 5.79157 11.7417 5.03324 11.7417 4.0999C11.7417 3.16657 10.9751 2.40824 10.0501 2.40824Z" fill="#1C1D24"/>
<path d="M4.02516 17.2251C2.40016 17.2251 1.0835 15.9085 1.0835 14.2835C1.0835 12.6668 2.40016 11.3418 4.02516 11.3418C5.65016 11.3418 6.96683 12.6585 6.96683 14.2835C6.96683 15.9001 5.65016 17.2251 4.02516 17.2251ZM4.02516 12.5918C3.09183 12.5918 2.3335 13.3501 2.3335 14.2835C2.3335 15.2168 3.09183 15.9751 4.02516 15.9751C4.9585 15.9751 5.71683 15.2168 5.71683 14.2835C5.71683 13.3501 4.9585 12.5918 4.02516 12.5918Z" fill="#1C1D24"/>
<path d="M15.9749 17.2251C14.3499 17.2251 13.0332 15.9085 13.0332 14.2835C13.0332 12.6668 14.3499 11.3418 15.9749 11.3418C17.5999 11.3418 18.9165 12.6585 18.9165 14.2835C18.9082 15.9001 17.5915 17.2251 15.9749 17.2251ZM15.9749 12.5918C15.0415 12.5918 14.2832 13.3501 14.2832 14.2835C14.2832 15.2168 15.0415 15.9751 15.9749 15.9751C16.9082 15.9751 17.6665 15.2168 17.6665 14.2835C17.6582 13.3501 16.9082 12.5918 15.9749 12.5918Z" fill="#1C1D24"/>
</svg>
